<?xml version="1.0" standalone="no"?>
<!DOCTYPE svg PUBLIC "-//W3C//DTD SVG 20010904//EN"
 "http://www.w3.org/TR/2001/REC-SVG-20010904/DTD/svg10.dtd">
<svg version="1.0" xmlns="http://www.w3.org/2000/svg"
 width="500.000000pt" height="500.000000pt" viewBox="0 0 500.000000 500.000000"
 preserveAspectRatio="xMidYMid meet">

<g transform="translate(0.000000,500.000000) scale(0.100000,-0.100000)"
fill="#000000" stroke="none">
<path d="M2170 4614 c-475 -73 -906 -300 -1211 -637 -273 -302 -434 -629 -511
-1037 -19 -98 -22 -150 -22 -345 0 -244 8 -310 60 -517 123 -490 456 -942 894
-1212 335 -208 682 -306 1081 -306 335 0 612 65 903 211 225 113 395 238 560
409 274 286 456 635 537 1030 22 104 24 140 24 385 0 245 -2 281 -24 385 -112
546 -424 1014 -878 1316 -240 159 -545 274 -844 318 -135 20 -437 20 -569 0z
m-1244 -1641 c22 -58 38 -86 49 -87 6 -1 21 27 34 62 l25 62 49 0 c49 0 49 0
43 -27 -4 -16 -26 -81 -49 -147 -35 -98 -46 -120 -67 -128 -23 -9 -86 -5 -97
6 -12 12 -103 279 -97 287 3 5 25 9 50 9 43 0 46 -2 60 -37z m348 -42 c3 -44
3 -111 0 -149 -6 -63 -9 -71 -30 -75 -13 -2 -35 -2 -49 1 l-25 4 0 149 0 149
49 0 48 0 7 -79z m269 68 c58 -30 97 -100 66 -120 -29 -18 -76 -10 -93 16 -18
27 -54 33 -74 13 -7 -7 -12 -30 -12 -53 0 -48 13 -65 53 -65 20 0 30 6 34 20
4 17 14 20 55 20 l51 0 -7 -32 c-4 -18 -20 -46 -36 -63 -26 -26 -38 -30 -97
-33 -55 -2 -74 1 -101 18 -37 23 -71 88 -72 135 0 49 40 118 80 137 40 20 120
24 153 7z m393 -13 c11 -44 1 -60 -40 -67 -21 -3 -42 -12 -47 -20 -5 -8 -9
-53 -9 -101 l0 -88 -49 0 -49 0 -4 95 c-3 105 -9 115 -65 115 -31 0 -33 2 -33
38 0 21 3 42 7 45 3 4 68 7 144 7 138 0 139 0 145 -24z m274 6 c40 -21 80 -90
80 -137 0 -17 -10 -51 -22 -75 -29 -56 -74 -80 -148 -80 -106 0 -160 54 -160
160 0 66 23 109 71 133 46 22 135 22 179 -1z m345 4 c58 -25 71 -80 34 -146
l-21 -37 26 -50 25 -51 -37 -6 c-52 -8 -74 1 -97 37 -26 41 -49 42 -53 0 -2
-23 -9 -33 -28 -37 -35 -9 -72 3 -80 26 -9 28 -9 205 0 246 l8 32 94 0 c59 0
107 -5 129 -14z m455 -4 c45 -22 63 -68 36 -87 -18 -13 -18 -15 3 -41 37 -47
23 -117 -29 -147 -58 -35 -195 -15 -219 31 -16 29 -14 62 3 62 23 0 29 20 13
38 -41 46 -28 119 26 146 43 21 124 20 167 -2z m205 -62 c4 -44 4 -111 0 -149
-6 -62 -9 -70 -31 -75 -13 -4 -35 -4 -49 0 -21 5 -25 12 -27 48 -3 60 4 240 9
249 2 4 24 7 48 7 l43 0 7 -80z m163 -19 c1 -52 8 -101 14 -108 6 -8 34 -13
74 -13 l64 0 0 -39 c0 -35 -3 -39 -31 -45 -17 -3 -69 -6 -115 -6 -113 0 -114
1 -114 148 0 161 1 164 59 160 l46 -3 3 -94z m283 38 c13 -34 29 -62 34 -62
11 0 27 27 49 86 14 35 17 37 60 37 59 0 59 -4 -1 -169 -48 -136 -52 -141
-114 -141 -14 0 -33 6 -42 13 -17 11 -107 251 -107 283 0 10 13 14 48 14 l48
0 25 -61z m432 34 c23 -45 98 -265 92 -271 -2 -3 -25 -6 -51 -6 -34 -1 -48 4
-55 17 -13 22 -97 25 -105 3 -7 -18 -40 -26 -76 -19 -35 7 -36 5 29 180 l45
123 54 0 c48 0 55 -3 67 -27z m-1723 -586 l5 -97 -25 0 -25 0 2 97 c1 54 2 99
3 101 0 2 8 2 18 0 14 -3 18 -18 22 -101z m444 57 c3 -26 6 -68 6 -95 0 -28 5
-49 13 -52 6 -3 -16 -6 -50 -6 -78 -1 -101 18 -94 79 3 23 40 50 68 50 21 0
24 4 23 28 -3 38 -2 42 14 42 8 0 16 -17 20 -46z m-1414 4 c47 -30 52 -96 9
-132 -26 -22 -40 -26 -92 -26 -47 0 -58 3 -49 12 15 15 16 148 1 148 -5 0 -7
5 -3 11 8 14 106 4 134 -13z m1807 7 c12 -8 24 -28 28 -45 10 -46 21 -44 35 5
7 25 18 45 25 45 8 0 21 -23 30 -51 15 -45 19 -49 28 -33 6 10 11 34 12 54 l3
35 78 3 c98 3 124 -3 124 -28 0 -28 -17 -34 -30 -10 -6 11 -20 20 -30 20 -15
0 -20 -7 -20 -29 0 -23 6 -32 28 -39 l27 -10 -28 -1 c-26 -1 -28 -4 -25 -33 4
-41 40 -52 58 -18 14 25 34 13 24 -13 -5 -14 -20 -17 -78 -16 -39 0 -65 3 -58
6 8 3 12 29 12 79 0 72 -1 74 -24 74 -22 0 -27 -9 -51 -81 -15 -44 -32 -78
-38 -76 -6 2 -17 22 -26 45 -8 23 -18 42 -22 42 -3 0 -12 -20 -19 -45 -7 -25
-18 -44 -24 -42 -6 2 -22 35 -36 75 -14 39 -28 74 -32 78 -10 10 -10 24 0 24
4 0 17 -7 29 -15z m488 5 c31 -12 42 -36 27 -60 -9 -14 -8 -21 3 -30 21 -18
18 -57 -4 -70 -24 -12 -142 -14 -122 -1 10 6 12 29 10 90 l-4 81 32 0 c17 0
43 -4 58 -10z m-2134 -61 c27 -27 10 -49 -37 -49 -19 0 -34 -4 -34 -9 0 -16
32 -43 44 -38 6 3 20 8 31 12 20 7 20 6 1 -9 -29 -24 -82 -21 -100 6 -23 33
-19 64 10 87 34 27 58 27 85 0z m118 12 c14 -9 9 -41 -8 -41 -5 0 -11 9 -14
21 -3 12 -10 18 -16 14 -20 -12 -11 -30 22 -45 38 -18 43 -49 9 -66 -30 -15
-76 -3 -80 19 -2 9 1 17 7 17 6 0 14 0 19 0 4 0 7 -6 7 -12 0 -15 34 -18 36
-3 1 6 -10 16 -23 22 -44 22 -53 40 -33 63 19 21 51 26 74 11z m135 -4 c31
-22 16 -52 -27 -55 -40 -3 -45 -12 -21 -36 18 -19 20 -19 45 -6 11 6 19 7 19
1 0 -29 -84 -28 -104 1 -22 32 -20 55 9 83 27 28 52 31 79 12z m156 3 c8 -5
17 -34 20 -64 6 -55 6 -56 -19 -56 -25 0 -26 3 -26 52 0 46 -3 53 -20 53 -16
0 -21 -8 -23 -44 -2 -28 1 -47 10 -52 8 -6 -2 -8 -27 -8 -22 0 -34 3 -27 6 15
6 16 89 1 99 -18 11 7 21 55 21 24 1 49 -3 56 -7z m84 -5 c8 -8 18 -24 21 -35
9 -27 19 -25 33 5 8 17 8 25 1 25 -6 0 -7 5 -4 10 8 12 55 13 55 1 0 -5 -6
-11 -14 -14 -7 -3 -22 -28 -32 -56 -10 -28 -23 -51 -30 -51 -6 0 -22 25 -34
55 -12 30 -26 55 -31 55 -5 0 -9 5 -9 10 0 15 27 12 44 -5z m226 -5 c41 -41
14 -110 -43 -110 -41 0 -67 26 -67 66 0 57 69 85 110 44z m154 5 c8 -8 18 -24
21 -35 9 -27 19 -25 33 5 8 17 8 25 1 25 -6 0 -7 5 -4 10 8 12 55 13 55 1 0
-5 -6 -11 -14 -14 -7 -3 -22 -28 -32 -56 -10 -28 -23 -51 -30 -51 -6 0 -22 25
-34 55 -12 30 -26 55 -31 55 -5 0 -9 5 -9 10 0 15 27 12 44 -5z m218 -2 c34
-31 17 -53 -42 -53 -23 0 -27 -4 -23 -19 6 -25 29 -34 53 -21 27 14 34 12 20
-5 -16 -20 -74 -19 -94 1 -9 8 -16 31 -16 49 0 56 62 85 102 48z m302 -4 c31
-25 34 -61 6 -89 -39 -39 -120 -12 -120 40 0 26 43 70 68 70 11 0 31 -9 46
-21z m144 -1 c2 -11 -3 -18 -12 -18 -9 0 -16 5 -16 11 0 5 -4 8 -10 4 -16 -10
-23 -74 -10 -90 11 -13 7 -15 -26 -14 -22 0 -33 3 -26 6 7 3 12 24 12 54 0 32
-4 49 -12 49 -9 0 -9 3 1 9 8 5 32 8 55 8 30 -2 42 -7 44 -19z m-223 -823 l0
-350 -375 0 -375 0 -3 340 c-1 187 0 346 3 353 3 10 83 12 377 10 l373 -3 0
-350z"/>
<path d="M2082 2908 c-7 -7 -12 -30 -12 -53 0 -47 13 -65 50 -65 37 0 50 18
50 65 0 47 -13 65 -50 65 -14 0 -31 -5 -38 -12z"/>
<path d="M2730 2390 c-13 -24 -3 -67 17 -74 25 -10 33 3 33 50 0 37 -3 44 -20
44 -10 0 -24 -9 -30 -20z"/>
<path d="M1320 2385 c0 -61 3 -75 16 -75 47 0 73 54 53 107 -12 31 -26 43 -51
43 -16 0 -18 -10 -18 -75z"/>
<path d="M3650 2430 c0 -25 4 -31 18 -28 11 2 17 12 17 28 0 16 -6 26 -17 28
-14 3 -18 -3 -18 -28z"/>
<path d="M3650 2351 c0 -33 11 -44 33 -35 37 14 25 64 -14 64 -14 0 -19 -7
-19 -29z"/>
<path d="M1497 2404 c-14 -14 -6 -24 19 -24 16 0 24 5 22 13 -5 14 -31 21 -41
11z"/>
<path d="M1757 2404 c-14 -14 -6 -24 19 -24 16 0 24 5 22 13 -5 14 -31 21 -41
11z"/>
<path d="M2204 2385 c-9 -35 11 -77 34 -73 13 3 17 13 17 48 0 39 -3 45 -22
48 -17 3 -24 -3 -29 -23z"/>
<path d="M2590 2395 c0 -8 9 -15 20 -15 11 0 20 7 20 15 0 8 -9 15 -20 15 -11
0 -20 -7 -20 -15z"/>
<path d="M2884 2386 c-10 -43 3 -78 29 -74 19 3 22 9 22 48 0 39 -3 45 -22 48
-17 3 -24 -3 -29 -22z"/>
<path d="M2170 1830 l0 -50 330 0 330 0 0 50 0 50 -330 0 -330 0 0 -50z m460
14 c11 -12 10 -18 -3 -32 -16 -15 -18 -15 -34 0 -13 14 -14 20 -3 32 7 9 16
16 20 16 4 0 13 -7 20 -16z m84 -7 c8 -13 7 -20 -4 -27 -8 -5 -19 -10 -23 -10
-12 0 -20 28 -13 46 7 19 25 15 40 -9z m84 -11 c-2 -13 -10 -21 -23 -21 -23 0
-33 34 -14 45 20 13 40 -1 37 -24z"/>
<path d="M2170 1500 l0 -220 330 0 330 0 0 220 0 220 -330 0 -330 0 0 -220z
m207 104 c3 -9 -7 -28 -28 -50 l-33 -34 33 -34 c21 -22 31 -41 28 -50 -10 -27
-31 -18 -82 34 l-49 50 49 50 c51 52 72 61 82 34z m180 5 c15 -15 -70 -189
-92 -189 -32 0 -28 34 13 116 41 82 56 96 79 73z m148 -39 l49 -50 -49 -50
c-51 -52 -72 -61 -82 -34 -3 9 7 28 28 50 l33 34 -33 34 c-21 22 -31 41 -28
50 10 27 31 18 82 -34z"/>
</g>
</svg>
